# xmcd
#
# Track frame offsets:
#	150
#	10552
#	17504
#	28718
#	34178
#	44745
#	50701
#	56825
#	69275
#	82686
#	87661
#	94672
#	108542
#	125987
#
# Disc length: 2242 seconds
#
# Revision: 1
# Processed by: cddbd v1.5.1PL2 Copyright (c) Steve Scherf et al.
# Submitted via: audiograbber 1.83.01
#
DISCID=b808c00e
DTITLE=Gin Palace - Kicking On
DYEAR=2004
DGENRE=Trash Blues
TTITLE0=Kicking On
TTITLE1=Cool Like An Axe
TTITLE2=Further In
TTITLE3=See
TTITLE4=Too Much For You
TTITLE5=The Count
TTITLE6=Cat
TTITLE7=I Like It
TTITLE8=<40 Days
TTITLE9=Tapestry
TTITLE10=Territorial Beast
TTITLE11=Dying Breed
TTITLE12=Things I Used To Love About You
TTITLE13=Data Track
EXTD=
EXTT0=
EXTT1=
EXTT2=
EXTT3=
EXTT4=
EXTT5=
EXTT6=
EXTT7=
EXTT8=
EXTT9=
EXTT10=
EXTT11=
EXTT12=
EXTT13=
PLAYORDER=
